<?xml version="1.0" encoding="utf-8"?>
<!-- Generator: Adobe Illustrator 25.3.1, SVG Export Plug-In . SVG Version: 6.00 Build 0)  -->
<svg version="1.1" id="Layer_1" xmlns="http://www.w3.org/2000/svg" xmlns:xlink="http://www.w3.org/1999/xlink" x="0px" y="0px"
	 viewBox="0 0 1133.86 283.46" style="enable-background:new 0 0 1133.86 283.46;" xml:space="preserve">
<style type="text/css">
	.st0{fill:none;}
	.st1{fill:#010101;}
</style>
<g>
	<rect x="7.19" y="4.72" class="st0" width="1119.48" height="274.03"/>
	<path class="st1" d="M354.88,117.76v47.99h-11.21v-47.99H354.88z"/>
	<path class="st1" d="M363.85,137.34l4.89-9.56h-4.89v-10.02h10.23v8.75l-6.33,10.83H363.85z"/>
	<path class="st1" d="M433.28,165.74h-10.48v-19.65c0-2.77-0.08-4.56-0.25-5.4c-0.16-0.83-0.59-1.52-1.28-2.07
		c-0.69-0.55-1.65-0.83-2.87-0.83c-1.15,0-2.32,0.41-3.52,1.23c-1.2,0.82-1.79,3.18-1.79,7.07v19.65h-10.48v-19.65
		c0-2.84-0.13-4.67-0.39-5.5c-0.26-0.83-0.74-1.51-1.46-2.02c-0.72-0.52-1.62-0.77-2.72-0.77c-1.81,0-3.15,0.57-4.03,1.71
		c-0.88,1.14-1.32,3.33-1.32,6.59v19.65h-10.16v-35.51h9.84v5.41c1.67-4.1,5-6.15,10-6.15c4.53,0,7.81,2.05,9.82,6.15
		c1.97-4.1,5.4-6.15,10.3-6.15c2.34,0,4.36,0.48,6.05,1.44c1.69,0.96,2.89,2.21,3.62,3.76c0.73,1.55,1.09,4.21,1.09,7.98V165.74z"/>
	<path class="st1" d="M497.3,117.76v47.99h-9.59l-18.78-32.41c0.02,0.82,0.05,1.36,0.07,1.62c0.09,0.82,0.14,1.51,0.14,2.07v28.72
		h-8.75v-47.99h12.12l16.33,28.3c-0.14-1.41-0.21-2.47-0.21-3.2v-25.1H497.3z"/>
	<path class="st1" d="M521.16,129.5c5.41,0,9.63,1.77,12.66,5.31c3.03,3.54,4.55,7.97,4.55,13.29c0,5.25-1.57,9.63-4.72,13.13
		c-3.15,3.5-7.33,5.26-12.56,5.26c-5.06,0-9.1-1.73-12.13-5.2s-4.55-7.92-4.55-13.36c0-3.77,0.68-6.98,2.05-9.62
		c1.37-2.64,3.25-4.76,5.64-6.38C514.48,130.31,517.5,129.5,521.16,129.5z M521.44,136.35c-1.99,0-3.48,0.77-4.49,2.3
		c-1.01,1.54-1.51,4.59-1.51,9.16c0,4.2,0.48,7.21,1.44,9.04s2.45,2.74,4.49,2.74c1.78,0,3.21-0.78,4.31-2.34
		c1.1-1.56,1.65-4.53,1.65-8.91c0-4.66-0.48-7.83-1.45-9.49C524.9,137.19,523.42,136.35,521.44,136.35z"/>
	<path class="st1" d="M556.79,138.39v15.01c0,1.88,0.28,3.13,0.84,3.76c0.56,0.63,1.88,0.95,3.96,0.95c0.96,0,2.07-0.05,3.33-0.14
		v7.77c-3.05,0.52-5.24,0.77-6.57,0.77c-4.36,0-7.45-0.84-9.28-2.51s-2.74-4.71-2.74-9.09v-16.52h-5.62v-8.16h6.22l0.84-10.48
		l9.04-0.7v11.18h7.63v8.16H556.79z"/>
	<path class="st1" d="M619.26,165.74H609.1c-0.33-1.41-0.49-3.26-0.49-5.55c-1.78,2.53-3.55,4.21-5.32,5.04s-3.77,1.25-6.02,1.25
		c-3.32,0-6.01-0.9-8.06-2.71c-2.05-1.8-3.07-4.23-3.07-7.28c0-2.23,0.6-4.28,1.79-6.15s3.11-3.35,5.76-4.41s7.46-1.86,14.46-2.37
		v-2.04c0-3.45-1.72-5.17-5.15-5.17c-3.67,0-5.71,1.72-6.13,5.17l-9.67-0.91c0.63-4.03,2.54-6.89,5.73-8.58s6.8-2.53,10.83-2.53
		c2.41,0,4.69,0.28,6.82,0.84s3.8,1.41,4.99,2.53s2,2.31,2.43,3.57c0.42,1.25,0.63,3.44,0.63,6.56v16.1
		C618.63,162.19,618.84,164.41,619.26,165.74z M608.15,148.73c-7.31,0.73-10.97,2.94-10.97,6.64c0,1.24,0.38,2.31,1.16,3.22
		s1.87,1.35,3.29,1.35c1.85,0,3.39-0.77,4.64-2.3s1.88-3.43,1.88-5.68V148.73z"/>
	<path class="st1" d="M684.47,135.61l-11.78,0.74c-0.17-6.77-2.81-10.16-7.93-10.16c-5.87,0-8.81,5.22-8.81,15.64
		c0,6.02,0.8,10.11,2.39,12.25c1.6,2.14,3.83,3.22,6.69,3.22c4.65,0,7.49-3.02,8.52-9.07l10.9,0.67c-0.7,5.74-2.84,10.11-6.42,13.1
		s-7.95,4.48-13.13,4.48c-6.35,0-11.51-2.19-15.49-6.57s-5.96-10.44-5.96-18.18c0-7.24,1.92-13.17,5.77-17.79
		c3.84-4.62,9.09-6.93,15.75-6.93C676.53,117.02,683.02,123.22,684.47,135.61z"/>
	<path class="st1" d="M705.16,129.5c5.41,0,9.63,1.77,12.66,5.31c3.03,3.54,4.55,7.97,4.55,13.29c0,5.25-1.58,9.63-4.72,13.13
		c-3.15,3.5-7.33,5.26-12.55,5.26c-5.06,0-9.1-1.73-12.13-5.2s-4.55-7.92-4.55-13.36c0-3.77,0.68-6.98,2.05-9.62
		c1.37-2.64,3.25-4.76,5.64-6.38C698.49,130.31,701.51,129.5,705.16,129.5z M705.44,136.35c-1.99,0-3.48,0.77-4.49,2.3
		c-1.01,1.54-1.51,4.59-1.51,9.16c0,4.2,0.48,7.21,1.44,9.04c0.96,1.83,2.45,2.74,4.49,2.74c1.78,0,3.21-0.78,4.31-2.34
		s1.65-4.53,1.65-8.91c0-4.66-0.49-7.83-1.46-9.49C708.91,137.19,707.43,136.35,705.44,136.35z"/>
	<path class="st1" d="M728.98,177.73v-47.5h9.63v5.2c1.78-3.96,4.9-5.94,9.35-5.94c3.84,0,6.99,1.54,9.44,4.62
		c2.45,3.08,3.67,7.56,3.67,13.45c0,6.26-1.24,10.97-3.71,14.15s-5.69,4.76-9.65,4.76c-4.01,0-6.87-1.56-8.58-4.68v15.93H728.98z
		 M739.14,150.21c0,2.51,0.15,4.24,0.46,5.2s0.95,1.82,1.93,2.58s2.05,1.14,3.2,1.14c1.43,0,2.71-0.73,3.83-2.2s1.69-4.69,1.69-9.69
		c0-7.01-1.85-10.51-5.55-10.51c-1.41,0-2.68,0.62-3.83,1.86c-1.15,1.24-1.72,3.35-1.72,6.33V150.21z"/>
	<path class="st1" d="M794.79,130.24l-11.13,34.06c-1.25,3.8-2.31,6.54-3.19,8.24s-2.15,3.06-3.8,4.08
		c-1.65,1.02-3.96,1.53-6.91,1.53c-1.48,0-3.15-0.14-5.03-0.42v-8.05c1.86,0.33,3.57,0.49,5.15,0.49c2.07,0,3.45-0.39,4.16-1.16
		c0.7-0.78,1.23-1.87,1.59-3.27l-12.93-35.5h11.07l6.84,21.13l6.58-21.13H794.79z"/>
</g>
<g>
</g>
<g>
</g>
<g>
</g>
<g>
</g>
<g>
</g>
<g>
</g>
</svg>
