<?xml version="1.0" encoding="utf-8"?>
<!-- Generator: Adobe Illustrator 25.3.1, SVG Export Plug-In . SVG Version: 6.00 Build 0)  -->
<svg version="1.1" id="Layer_1" xmlns="http://www.w3.org/2000/svg" xmlns:xlink="http://www.w3.org/1999/xlink" x="0px" y="0px"
	 viewBox="0 0 1133.86 283.46" style="enable-background:new 0 0 1133.86 283.46;" xml:space="preserve">
<style type="text/css">
	.st0{fill:none;}
	.st1{fill:#010101;}
</style>
<g>
	<rect x="7.19" y="4.72" class="st0" width="1119.48" height="274.03"/>
	<path class="st1" d="M245.51,165.74l-11.84-39.13v39.13h-9.42v-47.99h17.5l8.42,28.72l8.86-28.72h17.56v47.99h-11.32v-39.13
		l-12.07,39.13H245.51z"/>
	<path class="st1" d="M313.19,130.24l-11.13,34.06c-1.24,3.8-2.31,6.54-3.19,8.24c-0.88,1.7-2.15,3.06-3.8,4.08
		c-1.65,1.02-3.96,1.53-6.91,1.53c-1.48,0-3.15-0.14-5.03-0.42v-8.05c1.86,0.33,3.57,0.49,5.15,0.49c2.07,0,3.45-0.39,4.16-1.16
		c0.7-0.78,1.23-1.87,1.59-3.27l-12.93-35.5h11.07l6.84,21.13l6.58-21.13H313.19z"/>
	<path class="st1" d="M347.26,117.76v22.55l15.04-22.55h10.76l-11.53,17.13l14.41,30.86h-12.38l-9.58-20.84l-6.73,9.84v11h-11.04
		v-47.99H347.26z"/>
	<path class="st1" d="M391.59,116.77v10.48h-10.48v-10.48H391.59z M391.59,130.24v35.51h-10.48v-35.51H391.59z"/>
	<path class="st1" d="M430.4,117.76v47.99h-9.67v-5.55c-2.39,4.2-5.66,6.29-9.79,6.29c-3.92,0-7.01-1.6-9.28-4.8
		c-2.27-3.2-3.4-7.63-3.4-13.31c0-5.91,1.13-10.53,3.4-13.87c2.27-3.34,5.55-5.01,9.84-5.01c3.78,0,6.69,1.49,8.73,4.46v-16.21
		H430.4z M420.24,145.11c0-5.58-1.69-8.37-5.08-8.37c-4.04,0-6.07,3.94-6.07,11.81c0,7.01,1.89,10.51,5.68,10.51
		c1.46,0,2.73-0.63,3.83-1.9s1.64-3.07,1.64-5.41V145.11z"/>
	<path class="st1" d="M496.25,135.61l-11.78,0.74c-0.17-6.77-2.81-10.16-7.93-10.16c-5.87,0-8.81,5.22-8.81,15.64
		c0,6.02,0.8,10.11,2.4,12.25s3.83,3.22,6.69,3.22c4.65,0,7.49-3.02,8.52-9.07l10.9,0.67c-0.7,5.74-2.84,10.11-6.42,13.1
		c-3.57,2.99-7.95,4.48-13.13,4.48c-6.35,0-11.51-2.19-15.49-6.57s-5.96-10.44-5.96-18.18c0-7.24,1.92-13.17,5.77-17.79
		c3.84-4.62,9.09-6.93,15.75-6.93C488.3,117.02,494.79,123.22,496.25,135.61z"/>
	<path class="st1" d="M516.94,129.5c5.41,0,9.63,1.77,12.66,5.31c3.03,3.54,4.55,7.97,4.55,13.29c0,5.25-1.57,9.63-4.72,13.13
		c-3.15,3.5-7.33,5.26-12.56,5.26c-5.06,0-9.1-1.73-12.13-5.2s-4.55-7.92-4.55-13.36c0-3.77,0.68-6.98,2.05-9.62
		c1.37-2.64,3.25-4.76,5.64-6.38C510.26,130.31,513.28,129.5,516.94,129.5z M517.22,136.35c-1.99,0-3.48,0.77-4.49,2.3
		c-1.01,1.54-1.51,4.59-1.51,9.16c0,4.2,0.48,7.21,1.44,9.04s2.45,2.74,4.49,2.74c1.78,0,3.21-0.78,4.31-2.34
		c1.1-1.56,1.65-4.53,1.65-8.91c0-4.66-0.48-7.83-1.45-9.49C520.68,137.19,519.2,136.35,517.22,136.35z"/>
	<path class="st1" d="M571.09,130.24v35.51h-9.7v-6.05c-1.83,4.52-5.32,6.79-10.48,6.79c-2.67,0-4.72-0.5-6.15-1.49
		c-1.43-1-2.46-2.36-3.08-4.08c-0.62-1.72-0.93-4.21-0.93-7.47v-23.2h10.16v23.2c0,3.19,1.31,4.78,3.94,4.78
		c1.34,0,2.5-0.38,3.48-1.14s1.61-1.58,1.88-2.44c0.27-0.87,0.4-2.36,0.4-4.46v-19.93H571.09z"/>
	<path class="st1" d="M579.74,165.74v-47.99h10.48v47.99H579.74z"/>
	<path class="st1" d="M629.03,117.76v47.99h-9.67v-5.55c-2.39,4.2-5.66,6.29-9.79,6.29c-3.92,0-7.01-1.6-9.28-4.8
		s-3.4-7.63-3.4-13.31c0-5.91,1.13-10.53,3.4-13.87c2.26-3.34,5.55-5.01,9.84-5.01c3.78,0,6.69,1.49,8.73,4.46v-16.21H629.03z
		 M618.87,145.11c0-5.58-1.69-8.37-5.08-8.37c-4.04,0-6.07,3.94-6.07,11.81c0,7.01,1.89,10.51,5.68,10.51c1.46,0,2.73-0.63,3.83-1.9
		c1.09-1.27,1.64-3.07,1.64-5.41V145.11z"/>
	<path class="st1" d="M656.17,117.76h14.65c5.97,0,10.42,0.83,13.35,2.48s5.55,4.27,7.87,7.84c2.32,3.57,3.48,8.09,3.48,13.55
		c0,6.87-2.03,12.6-6.08,17.21c-4.05,4.61-9.64,6.91-16.75,6.91h-16.51V117.76z M667.21,126.58v30.13h4.63
		c4.09,0,7.13-1.53,9.12-4.59s2.98-6.65,2.98-10.78c0-2.91-0.57-5.6-1.7-8.07c-1.13-2.47-2.54-4.21-4.23-5.2
		c-1.68-1-3.71-1.49-6.07-1.49H667.21z"/>
	<path class="st1" d="M717.08,129.5c5.41,0,9.63,1.77,12.66,5.31c3.03,3.54,4.55,7.97,4.55,13.29c0,5.25-1.58,9.63-4.72,13.13
		c-3.15,3.5-7.33,5.26-12.55,5.26c-5.06,0-9.1-1.73-12.13-5.2s-4.55-7.92-4.55-13.36c0-3.77,0.68-6.98,2.05-9.62
		c1.37-2.64,3.25-4.76,5.64-6.38C710.41,130.31,713.43,129.5,717.08,129.5z M717.36,136.35c-1.99,0-3.48,0.77-4.49,2.3
		c-1.01,1.54-1.51,4.59-1.51,9.16c0,4.2,0.48,7.21,1.44,9.04c0.96,1.83,2.45,2.74,4.49,2.74c1.78,0,3.21-0.78,4.31-2.34
		s1.65-4.53,1.65-8.91c0-4.66-0.49-7.83-1.46-9.49C720.83,137.19,719.35,136.35,717.36,136.35z"/>
	<path class="st1" d="M789.8,117.76v9.49h-11.88v38.5h-11.39v-38.5h-11.95v-9.49H789.8z"/>
	<path class="st1" d="M804.29,117.76v17.31c1.92-3.71,5.12-5.57,9.6-5.57c2.39,0,4.44,0.52,6.13,1.56c1.7,1.04,2.89,2.39,3.59,4.03
		c0.69,1.64,1.04,4.04,1.04,7.21v23.45h-10.48v-20.03c0-2.39-0.09-4.04-0.28-4.93c-0.19-0.89-0.61-1.64-1.28-2.24
		c-0.67-0.6-1.5-0.9-2.5-0.9c-1.31,0-2.6,0.51-3.89,1.53c-1.28,1.02-1.93,3.2-1.93,6.53v20.03h-10.16v-47.99H804.29z"/>
	<path class="st1" d="M864.26,165.74H854.1c-0.33-1.41-0.49-3.26-0.49-5.55c-1.78,2.53-3.55,4.21-5.32,5.04s-3.77,1.25-6.02,1.25
		c-3.32,0-6.01-0.9-8.06-2.71c-2.05-1.8-3.07-4.23-3.07-7.28c0-2.23,0.6-4.28,1.79-6.15s3.11-3.35,5.76-4.41s7.46-1.86,14.46-2.37
		v-2.04c0-3.45-1.72-5.17-5.15-5.17c-3.67,0-5.71,1.72-6.13,5.17l-9.67-0.91c0.63-4.03,2.54-6.89,5.73-8.58s6.8-2.53,10.83-2.53
		c2.41,0,4.69,0.28,6.82,0.84s3.8,1.41,4.99,2.53s2,2.31,2.43,3.57c0.42,1.25,0.63,3.44,0.63,6.56v16.1
		C863.63,162.19,863.84,164.41,864.26,165.74z M853.15,148.73c-7.31,0.73-10.97,2.94-10.97,6.64c0,1.24,0.38,2.31,1.16,3.22
		s1.87,1.35,3.29,1.35c1.85,0,3.39-0.77,4.64-2.3s1.88-3.43,1.88-5.68V148.73z"/>
	<path class="st1" d="M884.09,138.39v15.01c0,1.88,0.28,3.13,0.84,3.76s1.88,0.95,3.96,0.95c0.96,0,2.07-0.05,3.33-0.14v7.77
		c-3.05,0.52-5.24,0.77-6.57,0.77c-4.36,0-7.45-0.84-9.28-2.51s-2.74-4.71-2.74-9.09v-16.52h-5.62v-8.16h6.22l0.84-10.48l9.04-0.7
		v11.18h7.63v8.16H884.09z"/>
	<path class="st1" d="M900.61,151.4l-3.52-33.65h13.46l-3.48,33.65H900.61z M898.33,165.74v-11.07h11.07v11.07H898.33z"/>
</g>
<g>
</g>
<g>
</g>
<g>
</g>
<g>
</g>
<g>
</g>
<g>
</g>
</svg>
