<?xml version="1.0" encoding="utf-8"?>
<!-- Generator: Adobe Illustrator 25.3.1, SVG Export Plug-In . SVG Version: 6.00 Build 0)  -->
<svg version="1.1" id="Layer_1" xmlns="http://www.w3.org/2000/svg" xmlns:xlink="http://www.w3.org/1999/xlink" x="0px" y="0px"
	 viewBox="0 0 1133.86 283.46" style="enable-background:new 0 0 1133.86 283.46;" xml:space="preserve">
<style type="text/css">
	.st0{fill:none;}
	.st1{fill:#010101;}
</style>
<g>
	<rect x="7.19" y="4.72" class="st0" width="1119.48" height="274.03"/>
	<path class="st1" d="M235.92,147.92v17.82h-11.43v-47.99h18.91c4.22,0,7.45,0.45,9.69,1.35c2.24,0.9,4.24,2.51,5.99,4.83
		s2.64,5.17,2.64,8.54c0,2.37-0.47,4.68-1.41,6.93c-0.94,2.25-2.26,4.02-3.97,5.31c-1.71,1.29-3.37,2.14-4.97,2.57
		c-1.61,0.42-4.12,0.63-7.54,0.63H235.92z M235.53,139.2h7.31c2.79,0,4.75-0.64,5.87-1.93c1.12-1.29,1.69-2.77,1.69-4.43
		c0-1.95-0.63-3.49-1.88-4.64c-1.25-1.15-3.16-1.72-5.71-1.72h-7.28V139.2z"/>
	<path class="st1" d="M298.46,149.75h-22.85c-0.02,0.63-0.04,1.18-0.04,1.65c0,2.53,0.67,4.44,2.02,5.73
		c1.35,1.29,2.96,1.93,4.83,1.93c3.49,0,5.59-1.86,6.29-5.59l9.49,0.7c-2.65,8.2-8.03,12.3-16.14,12.3c-3.54,0-6.54-0.71-9.02-2.13
		c-2.47-1.42-4.51-3.49-6.12-6.21c-1.61-2.72-2.41-5.98-2.41-9.77c0-5.65,1.61-10.21,4.83-13.68c3.22-3.47,7.37-5.2,12.43-5.2
		c4.57,0,8.49,1.61,11.76,4.83C296.82,137.55,298.46,142.69,298.46,149.75z M275.57,143.67h12.62c-0.33-4.88-2.33-7.31-6.01-7.31
		C278.24,136.35,276.04,138.79,275.57,143.67z"/>
	<path class="st1" d="M315.23,165.74h-10.16v-35.51h9.6v6.61c1.48-4.92,4.03-7.38,7.66-7.38c0.52,0,1.15,0.04,1.9,0.11v10.34
		c-2.13,0-3.79,0.33-4.97,0.98c-1.18,0.66-2.15,1.83-2.9,3.53c-0.75,1.7-1.12,3.99-1.12,6.87V165.74z"/>
	<path class="st1" d="M380.79,165.74h-10.48v-19.65c0-2.77-0.08-4.56-0.25-5.4c-0.16-0.83-0.59-1.52-1.28-2.07
		c-0.69-0.55-1.65-0.83-2.87-0.83c-1.15,0-2.32,0.41-3.52,1.23c-1.2,0.82-1.79,3.18-1.79,7.07v19.65h-10.48v-19.65
		c0-2.84-0.13-4.67-0.39-5.5c-0.26-0.83-0.74-1.51-1.46-2.02c-0.72-0.52-1.62-0.77-2.72-0.77c-1.81,0-3.15,0.57-4.03,1.71
		c-0.88,1.14-1.32,3.33-1.32,6.59v19.65h-10.16v-35.51h9.84v5.41c1.67-4.1,5-6.15,10-6.15c4.53,0,7.81,2.05,9.82,6.15
		c1.97-4.1,5.4-6.15,10.3-6.15c2.34,0,4.36,0.48,6.05,1.44c1.69,0.96,2.89,2.21,3.62,3.76c0.73,1.55,1.09,4.21,1.09,7.98V165.74z"/>
	<path class="st1" d="M420.38,165.74h-10.16c-0.33-1.41-0.49-3.26-0.49-5.55c-1.78,2.53-3.55,4.21-5.32,5.04s-3.77,1.25-6.02,1.25
		c-3.32,0-6.01-0.9-8.06-2.71c-2.05-1.8-3.07-4.23-3.07-7.28c0-2.23,0.6-4.28,1.79-6.15s3.11-3.35,5.76-4.41
		c2.64-1.07,7.46-1.86,14.46-2.37v-2.04c0-3.45-1.72-5.17-5.15-5.17c-3.67,0-5.71,1.72-6.13,5.17l-9.67-0.91
		c0.63-4.03,2.54-6.89,5.73-8.58c3.19-1.69,6.8-2.53,10.83-2.53c2.41,0,4.69,0.28,6.82,0.84c2.13,0.56,3.8,1.41,4.99,2.53
		s2,2.31,2.43,3.57c0.42,1.25,0.63,3.44,0.63,6.56v16.1C419.75,162.19,419.96,164.41,420.38,165.74z M409.27,148.73
		c-7.31,0.73-10.97,2.94-10.97,6.64c0,1.24,0.39,2.31,1.16,3.22c0.77,0.9,1.87,1.35,3.29,1.35c1.85,0,3.39-0.77,4.64-2.3
		s1.88-3.43,1.88-5.68V148.73z"/>
	<path class="st1" d="M459.26,165.74h-10.48v-19.93c0-2.41-0.09-4.07-0.28-4.96c-0.19-0.89-0.65-1.65-1.37-2.27
		c-0.73-0.62-1.64-0.93-2.74-0.93c-3.68,0-5.52,2.72-5.52,8.16v19.93H428.4v-35.51h9.74v6.01c1.62-2.86,3.21-4.7,4.78-5.52
		c1.57-0.82,3.27-1.23,5.1-1.23c3.38,0,6.09,0.91,8.16,2.72c2.06,1.82,3.09,5.38,3.09,10.71V165.74z"/>
	<path class="st1" d="M499.8,149.75h-22.85c-0.02,0.63-0.04,1.18-0.04,1.65c0,2.53,0.67,4.44,2.02,5.73
		c1.35,1.29,2.96,1.93,4.83,1.93c3.49,0,5.59-1.86,6.29-5.59l9.49,0.7c-2.65,8.2-8.03,12.3-16.14,12.3c-3.54,0-6.54-0.71-9.02-2.13
		c-2.47-1.42-4.51-3.49-6.12-6.21c-1.61-2.72-2.41-5.98-2.41-9.77c0-5.65,1.61-10.21,4.83-13.68c3.22-3.47,7.37-5.2,12.43-5.2
		c4.57,0,8.49,1.61,11.76,4.83C498.16,137.55,499.8,142.69,499.8,149.75z M476.91,143.67h12.62c-0.33-4.88-2.33-7.31-6.01-7.31
		C479.58,136.35,477.38,138.79,476.91,143.67z"/>
	<path class="st1" d="M537.27,165.74H526.8v-19.93c0-2.41-0.09-4.07-0.28-4.96c-0.19-0.89-0.65-1.65-1.37-2.27
		c-0.73-0.62-1.64-0.93-2.74-0.93c-3.68,0-5.52,2.72-5.52,8.16v19.93h-10.48v-35.51h9.74v6.01c1.62-2.86,3.21-4.7,4.78-5.52
		c1.57-0.82,3.27-1.23,5.1-1.23c3.38,0,6.09,0.91,8.16,2.72c2.06,1.82,3.09,5.38,3.09,10.71V165.74z"/>
	<path class="st1" d="M557.74,138.39v15.01c0,1.88,0.28,3.13,0.84,3.76c0.56,0.63,1.88,0.95,3.96,0.95c0.96,0,2.07-0.05,3.33-0.14
		v7.77c-3.05,0.52-5.24,0.77-6.57,0.77c-4.36,0-7.45-0.84-9.28-2.51s-2.74-4.71-2.74-9.09v-16.52h-5.62v-8.16h6.22l0.84-10.48
		l9.04-0.7v11.18h7.63v8.16H557.74z"/>
	<path class="st1" d="M620.14,117.76v9.49h-11.88v38.5h-11.39v-38.5h-11.95v-9.49H620.14z"/>
	<path class="st1" d="M652.62,149.75h-22.85c-0.02,0.63-0.04,1.18-0.04,1.65c0,2.53,0.67,4.44,2.02,5.73s2.96,1.93,4.83,1.93
		c3.49,0,5.59-1.86,6.29-5.59l9.49,0.7c-2.65,8.2-8.03,12.3-16.14,12.3c-3.54,0-6.54-0.71-9.02-2.13s-4.51-3.49-6.12-6.21
		s-2.41-5.98-2.41-9.77c0-5.65,1.61-10.21,4.83-13.68c3.22-3.47,7.37-5.2,12.43-5.2c4.57,0,8.49,1.61,11.76,4.83
		C650.99,137.55,652.62,142.69,652.62,149.75z M629.74,143.67h12.62c-0.33-4.88-2.33-7.31-6.01-7.31
		C632.41,136.35,630.2,138.79,629.74,143.67z"/>
	<path class="st1" d="M709.96,165.74h-10.48v-19.65c0-2.77-0.08-4.56-0.25-5.4c-0.16-0.83-0.59-1.52-1.28-2.07
		c-0.69-0.55-1.65-0.83-2.87-0.83c-1.15,0-2.32,0.41-3.52,1.23c-1.2,0.82-1.79,3.18-1.79,7.07v19.65h-10.48v-19.65
		c0-2.84-0.13-4.67-0.39-5.5c-0.26-0.83-0.74-1.51-1.46-2.02c-0.71-0.52-1.62-0.77-2.72-0.77c-1.8,0-3.15,0.57-4.03,1.71
		c-0.88,1.14-1.32,3.33-1.32,6.59v19.65h-10.16v-35.51h9.84v5.41c1.67-4.1,5-6.15,10-6.15c4.53,0,7.8,2.05,9.82,6.15
		c1.97-4.1,5.4-6.15,10.3-6.15c2.34,0,4.36,0.48,6.05,1.44c1.69,0.96,2.89,2.21,3.62,3.76c0.73,1.55,1.09,4.21,1.09,7.98V165.74z"/>
	<path class="st1" d="M718.58,177.73v-47.5h9.63v5.2c1.78-3.96,4.9-5.94,9.35-5.94c3.84,0,6.99,1.54,9.44,4.62
		c2.45,3.08,3.67,7.56,3.67,13.45c0,6.26-1.24,10.97-3.71,14.15s-5.69,4.76-9.65,4.76c-4.01,0-6.87-1.56-8.58-4.68v15.93H718.58z
		 M728.74,150.21c0,2.51,0.15,4.24,0.46,5.2s0.95,1.82,1.93,2.58s2.05,1.14,3.2,1.14c1.43,0,2.71-0.73,3.83-2.2s1.69-4.69,1.69-9.69
		c0-7.01-1.85-10.51-5.55-10.51c-1.41,0-2.68,0.62-3.83,1.86c-1.15,1.24-1.72,3.35-1.72,6.33V150.21z"/>
	<path class="st1" d="M772.14,129.5c5.41,0,9.63,1.77,12.66,5.31c3.03,3.54,4.55,7.97,4.55,13.29c0,5.25-1.58,9.63-4.72,13.13
		c-3.15,3.5-7.33,5.26-12.55,5.26c-5.06,0-9.1-1.73-12.13-5.2s-4.55-7.92-4.55-13.36c0-3.77,0.68-6.98,2.05-9.62
		c1.37-2.64,3.25-4.76,5.64-6.38C765.46,130.31,768.48,129.5,772.14,129.5z M772.42,136.35c-1.99,0-3.48,0.77-4.49,2.3
		c-1.01,1.54-1.51,4.59-1.51,9.16c0,4.2,0.48,7.21,1.44,9.04c0.96,1.83,2.45,2.74,4.49,2.74c1.78,0,3.21-0.78,4.31-2.34
		s1.65-4.53,1.65-8.91c0-4.66-0.49-7.83-1.46-9.49C775.88,137.19,774.4,136.35,772.42,136.35z"/>
	<path class="st1" d="M806.11,165.74h-10.16v-35.51h9.6v6.61c1.48-4.92,4.03-7.38,7.66-7.38c0.52,0,1.15,0.04,1.9,0.11v10.34
		c-2.13,0-3.79,0.33-4.97,0.98c-1.18,0.66-2.15,1.83-2.9,3.53c-0.75,1.7-1.12,3.99-1.12,6.87V165.74z"/>
	<path class="st1" d="M851.92,165.74h-10.16c-0.33-1.41-0.49-3.26-0.49-5.55c-1.78,2.53-3.55,4.21-5.32,5.04s-3.77,1.25-6.02,1.25
		c-3.32,0-6.01-0.9-8.06-2.71c-2.05-1.8-3.07-4.23-3.07-7.28c0-2.23,0.6-4.28,1.79-6.15s3.11-3.35,5.76-4.41s7.46-1.86,14.46-2.37
		v-2.04c0-3.45-1.72-5.17-5.15-5.17c-3.67,0-5.71,1.72-6.13,5.17l-9.67-0.91c0.63-4.03,2.54-6.89,5.73-8.58s6.8-2.53,10.83-2.53
		c2.41,0,4.69,0.28,6.82,0.84s3.8,1.41,4.99,2.53s2,2.31,2.43,3.57c0.42,1.25,0.63,3.44,0.63,6.56v16.1
		C851.29,162.19,851.5,164.41,851.92,165.74z M840.81,148.73c-7.31,0.73-10.97,2.94-10.97,6.64c0,1.24,0.38,2.31,1.16,3.22
		s1.87,1.35,3.29,1.35c1.85,0,3.39-0.77,4.64-2.3s1.88-3.43,1.88-5.68V148.73z"/>
	<path class="st1" d="M870.1,165.74h-10.16v-35.51h9.6v6.61c1.48-4.92,4.03-7.38,7.66-7.38c0.52,0,1.15,0.04,1.9,0.11v10.34
		c-2.13,0-3.79,0.33-4.97,0.98c-1.18,0.66-2.15,1.83-2.9,3.53c-0.75,1.7-1.12,3.99-1.12,6.87V165.74z"/>
	<path class="st1" d="M913.97,130.24l-11.13,34.06c-1.25,3.8-2.31,6.54-3.19,8.24s-2.15,3.06-3.8,4.08
		c-1.65,1.02-3.96,1.53-6.91,1.53c-1.48,0-3.15-0.14-5.03-0.42v-8.05c1.86,0.33,3.57,0.49,5.15,0.49c2.07,0,3.45-0.39,4.16-1.16
		c0.7-0.78,1.23-1.87,1.59-3.27l-12.93-35.5h11.07l6.84,21.13l6.58-21.13H913.97z"/>
</g>
<g>
</g>
<g>
</g>
<g>
</g>
<g>
</g>
<g>
</g>
<g>
</g>
</svg>
