<?xml version="1.0" encoding="utf-8"?>
<!-- Generator: Adobe Illustrator 25.3.1, SVG Export Plug-In . SVG Version: 6.00 Build 0)  -->
<svg version="1.1" id="Layer_1" xmlns="http://www.w3.org/2000/svg" xmlns:xlink="http://www.w3.org/1999/xlink" x="0px" y="0px"
	 viewBox="0 0 1133.86 283.46" style="enable-background:new 0 0 1133.86 283.46;" xml:space="preserve">
<style type="text/css">
	.st0{fill:none;}
	.st1{fill:#010101;}
</style>
<g>
	<rect x="7.19" y="4.72" class="st0" width="1119.48" height="274.03"/>
	<path class="st1" d="M230.5,74.56v9.49h-11.88v38.5h-11.39v-38.5h-11.95v-9.49H230.5z"/>
	<path class="st1" d="M244.99,74.56v17.31c1.92-3.71,5.12-5.57,9.6-5.57c2.39,0,4.44,0.52,6.13,1.56c1.7,1.04,2.89,2.39,3.59,4.03
		c0.69,1.64,1.04,4.04,1.04,7.21v23.45h-10.48v-20.03c0-2.39-0.09-4.04-0.28-4.93c-0.19-0.89-0.61-1.64-1.28-2.24
		c-0.67-0.6-1.5-0.9-2.5-0.9c-1.31,0-2.6,0.51-3.89,1.53c-1.28,1.02-1.93,3.2-1.93,6.53v20.03h-10.16V74.56H244.99z"/>
	<path class="st1" d="M305.88,106.55h-22.85c-0.02,0.63-0.04,1.18-0.04,1.65c0,2.53,0.67,4.44,2.02,5.73
		c1.35,1.29,2.96,1.93,4.83,1.93c3.49,0,5.59-1.86,6.29-5.59l9.49,0.7c-2.65,8.2-8.03,12.3-16.14,12.3c-3.54,0-6.54-0.71-9.02-2.13
		c-2.47-1.42-4.51-3.49-6.12-6.21c-1.61-2.72-2.41-5.98-2.41-9.77c0-5.65,1.61-10.21,4.83-13.68c3.22-3.47,7.37-5.2,12.43-5.2
		c4.57,0,8.49,1.61,11.76,4.83C304.24,94.35,305.88,99.49,305.88,106.55z M282.99,100.47h12.62c-0.33-4.87-2.33-7.31-6.01-7.31
		C285.66,93.15,283.46,95.59,282.99,100.47z"/>
	<path class="st1" d="M365.11,84.05h-22.46v10.76h17.75v8.96h-17.75v18.77h-11.67V74.56h34.14V84.05z"/>
	<path class="st1" d="M380.86,73.57v10.48h-10.48V73.57H380.86z M380.86,87.04v35.51h-10.48V87.04H380.86z"/>
	<path class="st1" d="M420.35,122.54h-10.48v-19.93c0-2.41-0.09-4.07-0.28-4.96c-0.19-0.89-0.65-1.65-1.37-2.27
		c-0.73-0.62-1.64-0.93-2.74-0.93c-3.68,0-5.52,2.72-5.52,8.16v19.93h-10.48V87.04h9.74v6.01c1.62-2.86,3.21-4.7,4.78-5.52
		c1.57-0.82,3.27-1.23,5.1-1.23c3.38,0,6.09,0.91,8.16,2.72c2.06,1.82,3.09,5.38,3.09,10.71V122.54z"/>
	<path class="st1" d="M459.97,122.54h-10.16c-0.33-1.41-0.49-3.26-0.49-5.55c-1.78,2.53-3.55,4.21-5.32,5.04s-3.77,1.25-6.02,1.25
		c-3.32,0-6.01-0.9-8.06-2.71c-2.05-1.8-3.07-4.23-3.07-7.28c0-2.23,0.6-4.28,1.79-6.15c1.19-1.88,3.11-3.35,5.76-4.41
		c2.64-1.07,7.46-1.86,14.46-2.37v-2.04c0-3.45-1.72-5.17-5.15-5.17c-3.67,0-5.71,1.72-6.13,5.17l-9.67-0.91
		c0.63-4.03,2.54-6.89,5.73-8.58c3.19-1.69,6.8-2.53,10.83-2.53c2.41,0,4.69,0.28,6.82,0.84c2.13,0.56,3.8,1.41,4.99,2.53
		s2,2.31,2.43,3.57c0.42,1.25,0.63,3.44,0.63,6.56v16.1C459.33,118.99,459.54,121.21,459.97,122.54z M448.86,105.53
		c-7.31,0.73-10.97,2.94-10.97,6.64c0,1.24,0.39,2.31,1.16,3.22c0.77,0.9,1.87,1.35,3.29,1.35c1.85,0,3.39-0.77,4.64-2.3
		c1.25-1.53,1.88-3.43,1.88-5.68V105.53z"/>
	<path class="st1" d="M467.98,122.54V74.56h10.48v47.99H467.98z"/>
	<path class="st1" d="M516.88,103.52v19.02h-11.32V74.56h21.09c3.89,0,7.01,0.45,9.37,1.35s4.31,2.56,5.85,4.97s2.32,5.09,2.32,8.05
		c0,5.76-2.78,9.9-8.33,12.4l8.86,21.22h-12.42l-7.37-19.02H516.88z M516.88,83.1v12.23h6.89c2.25,0,3.88-0.16,4.9-0.47
		s1.93-1.02,2.72-2.11c0.8-1.09,1.2-2.34,1.2-3.74c0-1.34-0.4-2.53-1.2-3.59c-0.8-1.05-1.66-1.71-2.6-1.95
		c-0.94-0.25-2.7-0.37-5.27-0.37H516.88z"/>
	<path class="st1" d="M583.05,106.55H560.2c-0.02,0.63-0.04,1.18-0.04,1.65c0,2.53,0.67,4.44,2.02,5.73
		c1.35,1.29,2.96,1.93,4.83,1.93c3.49,0,5.59-1.86,6.29-5.59l9.49,0.7c-2.65,8.2-8.03,12.3-16.14,12.3c-3.54,0-6.54-0.71-9.02-2.13
		c-2.47-1.42-4.51-3.49-6.12-6.21c-1.61-2.72-2.41-5.98-2.41-9.77c0-5.65,1.61-10.21,4.83-13.68c3.22-3.47,7.37-5.2,12.43-5.2
		c4.57,0,8.49,1.61,11.76,4.83C581.41,94.35,583.05,99.49,583.05,106.55z M560.16,100.47h12.62c-0.33-4.87-2.33-7.31-6.01-7.31
		C562.83,93.15,560.63,95.59,560.16,100.47z"/>
	<path class="st1" d="M616.24,95.61l-7.63,2.04c-0.89-3.21-3.2-4.82-6.93-4.82c-3.52,0-5.27,1.07-5.27,3.21
		c0,0.85,0.32,1.52,0.97,2.03c0.64,0.5,2.33,0.93,5.04,1.28c4.06,0.53,7.06,1.15,9,1.86s3.49,1.89,4.62,3.55
		c1.14,1.66,1.71,3.71,1.71,6.15c0,3.66-1.39,6.63-4.17,8.93c-2.78,2.3-6.66,3.45-11.65,3.45c-9.05,0-14.45-3.5-16.21-10.51
		l8.82-1.3c0.73,3.19,3.35,4.78,7.88,4.78c1.73,0,3.2-0.31,4.39-0.93s1.79-1.46,1.79-2.52c0-1.64-1.32-2.62-3.97-2.92
		c-7.17-0.88-11.89-2.26-14.15-4.12s-3.39-4.46-3.39-7.79c0-3.38,1.31-6.16,3.94-8.37c2.62-2.2,6.3-3.3,11.04-3.3
		c3.75,0,6.75,0.74,9,2.21S615.04,92.36,616.24,95.61z"/>
	<path class="st1" d="M636.1,95.19v15.01c0,1.88,0.28,3.13,0.84,3.76s1.88,0.95,3.96,0.95c0.96,0,2.07-0.05,3.33-0.14v7.77
		c-3.05,0.52-5.24,0.77-6.57,0.77c-4.36,0-7.45-0.84-9.28-2.51c-1.83-1.68-2.74-4.71-2.74-9.09V95.19H620v-8.16h6.22l0.84-10.48
		l9.04-0.7v11.18h7.63v8.16H636.1z"/>
	<path class="st1" d="M660.08,73.57v10.48H649.6V73.57H660.08z M660.08,87.04v35.51H649.6V87.04H660.08z"/>
	<path class="st1" d="M699.56,122.54h-10.48v-19.93c0-2.41-0.09-4.07-0.28-4.96c-0.19-0.89-0.64-1.65-1.37-2.27
		c-0.73-0.62-1.64-0.93-2.74-0.93c-3.68,0-5.52,2.72-5.52,8.16v19.93h-10.48V87.04h9.74v6.01c1.62-2.86,3.21-4.7,4.78-5.52
		c1.57-0.82,3.27-1.23,5.1-1.23c3.38,0,6.09,0.91,8.16,2.72c2.06,1.82,3.09,5.38,3.09,10.71V122.54z"/>
	<path class="st1" d="M743.68,87.84c-1.1-0.23-2.03-0.35-2.78-0.35c-2.32,0-3.68,1.03-4.08,3.09c1.9,1.99,2.85,4.24,2.85,6.75
		c0,3.35-1.4,6.02-4.2,8.02c-2.8,1.99-6.84,2.99-12.11,2.99c-1.88,0-3.7-0.18-5.48-0.53c-1.2,0.7-1.79,1.61-1.79,2.71
		c0,1.22,0.5,2.03,1.51,2.43s3.43,0.69,7.28,0.88c5.46,0.28,9.22,0.62,11.29,1.02c2.06,0.4,3.8,1.36,5.2,2.88
		c1.41,1.52,2.11,3.42,2.11,5.7c0,3.26-1.51,6.01-4.52,8.26s-8.35,3.38-16.01,3.38c-7.2,0-12.05-0.78-14.55-2.34
		c-2.51-1.56-3.76-3.54-3.76-5.93c0-3.17,2.03-5.3,6.08-6.41c-3-1.5-4.5-3.61-4.5-6.33c0-3.4,2.37-6.05,7.1-7.95
		c-4.2-1.73-6.29-4.62-6.29-8.68c0-3.3,1.45-5.98,4.34-8.04c2.89-2.06,6.9-3.09,12.01-3.09c3.23,0,6.36,0.52,9.39,1.55
		c0.21-2.02,0.8-3.67,1.78-4.97s3.04-1.95,6.21-1.95c1.03,0,2.02,0.09,2.95,0.28V87.84z M716.29,122.3c-0.42,0-0.96,0.28-1.6,0.84
		s-0.97,1.24-0.97,2.04c0,1.59,1.02,2.59,3.06,2.99c2.04,0.4,4.43,0.6,7.17,0.6c3.59,0,6.1-0.27,7.54-0.81
		c1.44-0.54,2.16-1.41,2.16-2.6c0-0.91-0.6-1.62-1.81-2.11s-4.42-0.74-9.65-0.74l-2.11,0.04c-1.29,0-2.16-0.04-2.6-0.11
		C716.99,122.35,716.59,122.3,716.29,122.3z M723.27,91.96c-1.8,0-3.21,0.49-4.22,1.46c-1.02,0.97-1.52,2.26-1.52,3.85
		c0,3.61,1.93,5.41,5.78,5.41c1.87,0,3.33-0.53,4.4-1.58c1.06-1.05,1.6-2.33,1.6-3.83c0-1.41-0.5-2.64-1.51-3.71
		C726.79,92.49,725.28,91.96,723.27,91.96z"/>
	<path class="st1" d="M777.95,104.72v17.82h-11.43V74.56h18.91c4.22,0,7.45,0.45,9.69,1.35c2.24,0.9,4.24,2.51,5.99,4.83
		s2.64,5.17,2.64,8.54c0,2.37-0.47,4.68-1.41,6.93s-2.26,4.02-3.97,5.31c-1.71,1.29-3.37,2.14-4.97,2.57s-4.12,0.63-7.54,0.63
		H777.95z M777.57,96h7.31c2.79,0,4.75-0.64,5.87-1.93c1.12-1.29,1.69-2.77,1.69-4.43c0-1.95-0.63-3.49-1.88-4.64
		c-1.25-1.15-3.16-1.72-5.71-1.72h-7.28V96z"/>
	<path class="st1" d="M809.49,122.54V74.56h10.48v47.99H809.49z"/>
	<path class="st1" d="M859.55,122.54h-10.16c-0.33-1.41-0.49-3.26-0.49-5.55c-1.78,2.53-3.55,4.21-5.32,5.04s-3.77,1.25-6.02,1.25
		c-3.32,0-6.01-0.9-8.06-2.71c-2.05-1.8-3.07-4.23-3.07-7.28c0-2.23,0.6-4.28,1.79-6.15c1.19-1.88,3.11-3.35,5.76-4.41
		c2.64-1.07,7.46-1.86,14.46-2.37v-2.04c0-3.45-1.72-5.17-5.15-5.17c-3.67,0-5.71,1.72-6.13,5.17l-9.67-0.91
		c0.63-4.03,2.54-6.89,5.73-8.58s6.8-2.53,10.83-2.53c2.41,0,4.69,0.28,6.82,0.84s3.8,1.41,4.99,2.53s2,2.31,2.43,3.57
		c0.42,1.25,0.63,3.44,0.63,6.56v16.1C858.92,118.99,859.13,121.21,859.55,122.54z M848.44,105.53c-7.31,0.73-10.97,2.94-10.97,6.64
		c0,1.24,0.38,2.31,1.16,3.22c0.77,0.9,1.87,1.35,3.29,1.35c1.85,0,3.39-0.77,4.64-2.3c1.25-1.53,1.88-3.43,1.88-5.68V105.53z"/>
	<path class="st1" d="M898.79,109.22c-0.4,4.2-2.06,7.59-4.97,10.18c-2.92,2.59-6.69,3.88-11.3,3.88c-5.02,0-9.1-1.66-12.25-4.97
		c-3.15-3.32-4.73-7.75-4.73-13.31s1.61-10.06,4.83-13.52c3.22-3.46,7.53-5.19,12.92-5.19c4.34,0,7.93,1.3,10.78,3.9
		s4.42,5.86,4.73,9.77l-9.77,0.56c-0.33-4.27-2.18-6.4-5.55-6.4c-4.15,0-6.22,3.4-6.22,10.2c0,4.52,0.58,7.4,1.74,8.61
		c1.16,1.22,2.57,1.83,4.24,1.83c3.23,0,5.17-2.05,5.8-6.15L898.79,109.22z"/>
	<path class="st1" d="M936.3,106.55h-22.85c-0.02,0.63-0.04,1.18-0.04,1.65c0,2.53,0.67,4.44,2.02,5.73
		c1.35,1.29,2.96,1.93,4.83,1.93c3.49,0,5.59-1.86,6.29-5.59l9.49,0.7c-2.65,8.2-8.03,12.3-16.14,12.3c-3.54,0-6.54-0.71-9.02-2.13
		s-4.51-3.49-6.12-6.21c-1.61-2.72-2.41-5.98-2.41-9.77c0-5.65,1.61-10.21,4.83-13.68c3.22-3.47,7.37-5.2,12.43-5.2
		c4.57,0,8.49,1.61,11.76,4.83C934.66,94.35,936.3,99.49,936.3,106.55z M913.41,100.47h12.62c-0.33-4.87-2.33-7.31-6.01-7.31
		C916.08,93.15,913.88,95.59,913.41,100.47z"/>
	<path class="st1" d="M313.84,172.7c5.41,0,9.63,1.77,12.66,5.31s4.55,7.97,4.55,13.29c0,5.25-1.57,9.63-4.72,13.13
		c-3.15,3.5-7.33,5.26-12.56,5.26c-5.06,0-9.1-1.73-12.13-5.2s-4.55-7.92-4.55-13.36c0-3.77,0.68-6.98,2.05-9.62
		c1.37-2.64,3.25-4.76,5.64-6.38C307.17,173.51,310.19,172.7,313.84,172.7z M314.12,179.55c-1.99,0-3.48,0.77-4.49,2.3
		c-1.01,1.54-1.51,4.59-1.51,9.16c0,4.2,0.48,7.21,1.44,9.04s2.45,2.74,4.49,2.74c1.78,0,3.21-0.78,4.31-2.34
		c1.1-1.56,1.65-4.53,1.65-8.91c0-4.66-0.48-7.83-1.45-9.49C317.58,180.39,316.11,179.55,314.12,179.55z"/>
	<path class="st1" d="M348.59,181.59v27.35h-10.2v-27.35h-4.11v-8.16h4.11c0.05-3.66,0.31-6.32,0.79-8
		c0.48-1.68,1.72-3.16,3.71-4.46c1.99-1.3,4.7-1.95,8.12-1.95c1.41,0,3.02,0.13,4.85,0.39v8.09c-1.5-0.12-2.74-0.18-3.73-0.18
		c-1.43,0-2.38,0.38-2.85,1.12c-0.47,0.75-0.7,1.97-0.7,3.66v1.34h6.43v8.16H348.59z"/>
	<path class="st1" d="M390.5,181.59v15.01c0,1.88,0.28,3.13,0.84,3.76c0.56,0.63,1.88,0.95,3.96,0.95c0.96,0,2.07-0.05,3.33-0.14
		v7.77c-3.05,0.52-5.24,0.77-6.57,0.77c-4.36,0-7.45-0.84-9.28-2.51s-2.74-4.71-2.74-9.09v-16.52h-5.62v-8.16h6.22l0.84-10.48
		l9.04-0.7v11.18h7.63v8.16H390.5z"/>
	<path class="st1" d="M414.16,160.96v17.31c1.92-3.71,5.12-5.57,9.6-5.57c2.39,0,4.44,0.52,6.13,1.56c1.7,1.04,2.89,2.38,3.59,4.03
		c0.69,1.64,1.04,4.04,1.04,7.21v23.45h-10.48v-20.03c0-2.39-0.09-4.04-0.28-4.93c-0.19-0.89-0.61-1.64-1.28-2.24
		c-0.67-0.6-1.5-0.9-2.5-0.9c-1.31,0-2.6,0.51-3.89,1.53c-1.28,1.02-1.93,3.2-1.93,6.53v20.03H404v-47.99H414.16z"/>
	<path class="st1" d="M475.05,192.95H452.2c-0.02,0.63-0.04,1.18-0.04,1.65c0,2.53,0.67,4.44,2.02,5.73
		c1.35,1.29,2.96,1.93,4.83,1.93c3.49,0,5.59-1.86,6.29-5.59l9.49,0.7c-2.65,8.2-8.03,12.3-16.14,12.3c-3.54,0-6.54-0.71-9.02-2.13
		c-2.47-1.42-4.51-3.49-6.12-6.21c-1.61-2.72-2.41-5.98-2.41-9.77c0-5.65,1.61-10.21,4.83-13.68c3.22-3.47,7.37-5.2,12.43-5.2
		c4.57,0,8.49,1.61,11.76,4.83S475.05,185.89,475.05,192.95z M452.16,186.87h12.62c-0.33-4.88-2.33-7.31-6.01-7.31
		C454.83,179.55,452.63,181.99,452.16,186.87z"/>
	<path class="st1" d="M537.52,218.4c-1.36,0.3-2.7,0.46-4.01,0.46c-4.29,0-7.16-0.92-8.61-2.76c-1.45-1.84-2.3-4.15-2.53-6.94
		c-1.81,0.21-3.32,0.32-4.54,0.32c-6.07,0-10.92-2.37-14.54-7.12s-5.43-10.55-5.43-17.42c0-6.7,1.75-12.5,5.24-17.38
		c3.49-4.89,8.64-7.33,15.43-7.33c6.7,0,11.81,2.43,15.33,7.29s5.27,10.71,5.27,17.53c0,5.48-1,10.05-3.01,13.69
		s-4.37,6.25-7.08,7.82c0,2.46,1.41,3.69,4.22,3.69c0.82,0,2.24-0.12,4.25-0.35V218.4z M518.48,169.39c-5.89,0-8.84,5.18-8.84,15.54
		c0,10.41,2.94,15.61,8.81,15.61c5.94,0,8.91-5.13,8.91-15.4C527.36,174.64,524.4,169.39,518.48,169.39z"/>
	<path class="st1" d="M576.33,173.44v35.51h-9.7v-6.05c-1.83,4.52-5.32,6.79-10.48,6.79c-2.67,0-4.72-0.5-6.15-1.49
		c-1.43-1-2.46-2.36-3.08-4.08c-0.62-1.72-0.93-4.21-0.93-7.47v-23.2h10.16v23.2c0,3.19,1.31,4.78,3.94,4.78
		c1.34,0,2.5-0.38,3.48-1.14s1.61-1.58,1.88-2.44c0.27-0.87,0.4-2.36,0.4-4.46v-19.93H576.33z"/>
	<path class="st1" d="M616.87,192.95h-22.85c-0.02,0.63-0.04,1.18-0.04,1.65c0,2.53,0.67,4.44,2.02,5.73s2.96,1.93,4.83,1.93
		c3.49,0,5.59-1.86,6.29-5.59l9.49,0.7c-2.65,8.2-8.03,12.3-16.14,12.3c-3.54,0-6.54-0.71-9.02-2.13s-4.51-3.49-6.12-6.21
		s-2.41-5.98-2.41-9.77c0-5.65,1.61-10.21,4.83-13.68s7.37-5.2,12.43-5.2c4.57,0,8.49,1.61,11.76,4.83S616.87,185.89,616.87,192.95z
		 M593.98,186.87h12.62c-0.33-4.88-2.33-7.31-6.01-7.31C596.65,179.55,594.45,181.99,593.98,186.87z"/>
	<path class="st1" d="M655.36,192.95h-22.85c-0.02,0.63-0.04,1.18-0.04,1.65c0,2.53,0.67,4.44,2.02,5.73s2.96,1.93,4.83,1.93
		c3.49,0,5.59-1.86,6.29-5.59l9.49,0.7c-2.65,8.2-8.03,12.3-16.14,12.3c-3.54,0-6.54-0.71-9.02-2.13s-4.51-3.49-6.12-6.21
		s-2.41-5.98-2.41-9.77c0-5.65,1.61-10.21,4.83-13.68s7.37-5.2,12.43-5.2c4.57,0,8.49,1.61,11.76,4.83S655.36,185.89,655.36,192.95z
		 M632.48,186.87h12.62c-0.33-4.88-2.33-7.31-6.01-7.31C635.15,179.55,632.95,181.99,632.48,186.87z"/>
	<path class="st1" d="M692.84,208.94h-10.48v-19.93c0-2.41-0.09-4.07-0.28-4.96s-0.64-1.65-1.37-2.27s-1.64-0.93-2.74-0.93
		c-3.68,0-5.52,2.72-5.52,8.16v19.93h-10.48v-35.51h9.74v6.01c1.62-2.86,3.21-4.7,4.78-5.52s3.27-1.23,5.1-1.23
		c3.38,0,6.09,0.91,8.16,2.72s3.09,5.38,3.09,10.71V208.94z"/>
	<path class="st1" d="M719.98,160.96h22.36c4.01,0,7.02,0.49,9.04,1.48s3.68,2.39,4.99,4.22c1.31,1.83,1.97,4.05,1.97,6.67
		c0,5.32-2.88,8.87-8.65,10.64c3.33,0.75,5.82,2.24,7.49,4.47c1.66,2.23,2.5,4.66,2.5,7.28c0,3.59-1.36,6.69-4.08,9.31
		c-2.72,2.62-7.14,3.92-13.25,3.92h-22.36V160.96z M731.2,169.43v10.51h8.51c3.12,0,5.08-0.62,5.89-1.85s1.21-2.41,1.21-3.53
		c0-1.22-0.33-2.27-1-3.15s-1.4-1.43-2.2-1.65s-2.37-0.33-4.71-0.33H731.2z M731.2,188.48v11.57h8.63c2.95,0,5.03-0.52,6.25-1.55
		s1.82-2.47,1.82-4.32c0-1.55-0.58-2.88-1.75-4.01c-1.17-1.12-3.11-1.69-5.82-1.69H731.2z"/>
	<path class="st1" d="M798.27,192.95h-22.85c-0.02,0.63-0.04,1.18-0.04,1.65c0,2.53,0.67,4.44,2.02,5.73s2.96,1.93,4.83,1.93
		c3.49,0,5.59-1.86,6.29-5.59l9.49,0.7c-2.65,8.2-8.03,12.3-16.14,12.3c-3.54,0-6.54-0.71-9.02-2.13s-4.51-3.49-6.12-6.21
		s-2.41-5.98-2.41-9.77c0-5.65,1.61-10.21,4.83-13.68s7.37-5.2,12.43-5.2c4.57,0,8.49,1.61,11.76,4.83S798.27,185.89,798.27,192.95z
		 M775.39,186.87h12.62c-0.33-4.88-2.33-7.31-6.01-7.31C778.06,179.55,775.86,181.99,775.39,186.87z"/>
	<path class="st1" d="M836.77,192.95h-22.85c-0.02,0.63-0.04,1.18-0.04,1.65c0,2.53,0.67,4.44,2.02,5.73s2.96,1.93,4.83,1.93
		c3.49,0,5.59-1.86,6.29-5.59l9.49,0.7c-2.65,8.2-8.03,12.3-16.14,12.3c-3.54,0-6.54-0.71-9.02-2.13s-4.51-3.49-6.12-6.21
		s-2.41-5.98-2.41-9.77c0-5.65,1.61-10.21,4.83-13.68s7.37-5.2,12.43-5.2c4.57,0,8.49,1.61,11.76,4.83S836.77,185.89,836.77,192.95z
		 M813.88,186.87h12.62c-0.33-4.88-2.33-7.31-6.01-7.31C816.56,179.55,814.35,181.99,813.88,186.87z"/>
</g>
<g>
</g>
<g>
</g>
<g>
</g>
<g>
</g>
<g>
</g>
<g>
</g>
</svg>
