<?xml version="1.0" encoding="utf-8"?>
<!-- Generator: Adobe Illustrator 25.3.1, SVG Export Plug-In . SVG Version: 6.00 Build 0)  -->
<svg version="1.1" id="Layer_1" xmlns="http://www.w3.org/2000/svg" xmlns:xlink="http://www.w3.org/1999/xlink" x="0px" y="0px"
	 viewBox="0 0 1133.86 283.46" style="enable-background:new 0 0 1133.86 283.46;" xml:space="preserve">
<style type="text/css">
	.st0{fill:none;}
</style>
<g>
	<rect x="7.19" y="4.72" class="st0" width="1119.48" height="274.03"/>
	<path d="M322.14,117.76v9.49h-11.88v38.5h-11.39v-38.5h-11.95v-9.49H322.14z"/>
	<path d="M336.62,117.76v17.31c1.92-3.71,5.12-5.57,9.6-5.57c2.39,0,4.44,0.52,6.13,1.56c1.7,1.04,2.89,2.39,3.59,4.03
		c0.69,1.64,1.04,4.04,1.04,7.21v23.45H346.5v-20.03c0-2.39-0.09-4.04-0.28-4.93c-0.19-0.89-0.61-1.64-1.28-2.24
		c-0.67-0.6-1.5-0.9-2.5-0.9c-1.31,0-2.6,0.51-3.89,1.53c-1.28,1.02-1.93,3.2-1.93,6.53v20.03h-10.16v-47.99H336.62z"/>
	<path d="M397.51,149.75h-22.85c-0.02,0.63-0.04,1.18-0.04,1.65c0,2.53,0.67,4.44,2.02,5.73c1.35,1.29,2.96,1.93,4.83,1.93
		c3.49,0,5.59-1.86,6.29-5.59l9.49,0.7c-2.65,8.2-8.03,12.3-16.14,12.3c-3.54,0-6.54-0.71-9.02-2.13c-2.47-1.42-4.51-3.49-6.12-6.21
		c-1.61-2.72-2.41-5.98-2.41-9.77c0-5.65,1.61-10.21,4.83-13.68c3.22-3.47,7.37-5.2,12.43-5.2c4.57,0,8.49,1.61,11.76,4.83
		C395.88,137.55,397.51,142.69,397.51,149.75z M374.62,143.67h12.62c-0.33-4.88-2.33-7.31-6.01-7.31
		C377.3,136.35,375.09,138.79,374.62,143.67z"/>
	<path d="M458.3,117.76l-14.5,47.99h-12.08l-14.41-47.99h11.97l9.6,34.31l10-34.31H458.3z"/>
	<path d="M491.03,165.74h-10.16c-0.33-1.41-0.49-3.26-0.49-5.55c-1.78,2.53-3.55,4.21-5.32,5.04s-3.77,1.25-6.02,1.25
		c-3.32,0-6.01-0.9-8.06-2.71c-2.05-1.8-3.07-4.23-3.07-7.28c0-2.23,0.6-4.28,1.79-6.15s3.11-3.35,5.76-4.41
		c2.64-1.07,7.46-1.86,14.46-2.37v-2.04c0-3.45-1.72-5.17-5.15-5.17c-3.67,0-5.71,1.72-6.13,5.17l-9.67-0.91
		c0.63-4.03,2.54-6.89,5.73-8.58c3.19-1.69,6.8-2.53,10.83-2.53c2.41,0,4.69,0.28,6.82,0.84c2.13,0.56,3.8,1.41,4.99,2.53
		s2,2.31,2.43,3.57c0.42,1.25,0.63,3.44,0.63,6.56v16.1C490.39,162.19,490.6,164.41,491.03,165.74z M479.92,148.73
		c-7.31,0.73-10.97,2.94-10.97,6.64c0,1.24,0.39,2.31,1.16,3.22c0.77,0.9,1.87,1.35,3.29,1.35c1.85,0,3.39-0.77,4.64-2.3
		s1.88-3.43,1.88-5.68V148.73z"/>
	<path d="M529.91,165.74h-10.48v-19.93c0-2.41-0.09-4.07-0.28-4.96c-0.19-0.89-0.65-1.65-1.37-2.27c-0.73-0.62-1.64-0.93-2.74-0.93
		c-3.68,0-5.52,2.72-5.52,8.16v19.93h-10.48v-35.51h9.74v6.01c1.62-2.86,3.21-4.7,4.78-5.52c1.57-0.82,3.27-1.23,5.1-1.23
		c3.38,0,6.09,0.91,8.16,2.72c2.06,1.82,3.09,5.38,3.09,10.71V165.74z"/>
	<path d="M568.76,117.76v47.99h-9.67v-5.55c-2.39,4.2-5.66,6.29-9.79,6.29c-3.92,0-7.01-1.6-9.28-4.8c-2.27-3.2-3.4-7.63-3.4-13.31
		c0-5.91,1.13-10.53,3.4-13.87c2.27-3.34,5.55-5.01,9.84-5.01c3.78,0,6.69,1.49,8.73,4.46v-16.21H568.76z M558.6,145.11
		c0-5.58-1.69-8.37-5.08-8.37c-4.04,0-6.07,3.94-6.07,11.81c0,7.01,1.89,10.51,5.68,10.51c1.46,0,2.73-0.63,3.83-1.9
		s1.64-3.07,1.64-5.41V145.11z"/>
	<path d="M608.38,165.74h-10.16c-0.33-1.41-0.49-3.26-0.49-5.55c-1.78,2.53-3.55,4.21-5.32,5.04s-3.77,1.25-6.02,1.25
		c-3.32,0-6.01-0.9-8.06-2.71c-2.05-1.8-3.07-4.23-3.07-7.28c0-2.23,0.6-4.28,1.79-6.15s3.11-3.35,5.76-4.41s7.46-1.86,14.46-2.37
		v-2.04c0-3.45-1.72-5.17-5.15-5.17c-3.67,0-5.71,1.72-6.13,5.17l-9.67-0.91c0.63-4.03,2.54-6.89,5.73-8.58s6.8-2.53,10.83-2.53
		c2.41,0,4.69,0.28,6.82,0.84s3.8,1.41,4.99,2.53s2,2.31,2.43,3.57c0.42,1.25,0.63,3.44,0.63,6.56v16.1
		C607.75,162.19,607.96,164.41,608.38,165.74z M597.27,148.73c-7.31,0.73-10.97,2.94-10.97,6.64c0,1.24,0.38,2.31,1.16,3.22
		s1.87,1.35,3.29,1.35c1.85,0,3.39-0.77,4.64-2.3s1.88-3.43,1.88-5.68V148.73z"/>
	<path d="M616.39,165.74v-47.99h10.48v47.99H616.39z"/>
	<path d="M687.13,128.3l-9.56,3.2c-1.29-3.8-4.01-5.7-8.17-5.7c-4.44,0-6.66,1.44-6.66,4.32c0,1.15,0.42,2.12,1.25,2.92
		c0.83,0.8,2.71,1.49,5.63,2.08c4.89,0.99,8.47,1.98,10.74,2.99c2.27,1.01,4.18,2.63,5.74,4.87c1.56,2.24,2.33,4.74,2.33,7.5
		c0,4.34-1.67,8.08-5.01,11.25c-3.34,3.16-8.28,4.75-14.84,4.75c-4.92,0-9.1-1.12-12.56-3.36s-5.73-5.56-6.83-9.97l10.41-2.36
		c1.17,4.48,4.42,6.71,9.75,6.71c2.57,0,4.49-0.5,5.75-1.49c1.26-1,1.89-2.19,1.89-3.57c0-1.41-0.57-2.5-1.72-3.27
		c-1.15-0.77-3.36-1.5-6.63-2.18c-6.11-1.27-10.46-3-13.06-5.19c-2.6-2.19-3.9-5.4-3.9-9.61c0-4.27,1.55-7.86,4.65-10.79
		s7.31-4.39,12.63-4.39C678.38,117.02,684.44,120.78,687.13,128.3z"/>
	<path d="M726.29,130.24c-0.33,2.11-0.49,3.74-0.49,4.89v42.61h-10.2v-15.68c-2.18,2.95-4.99,4.43-8.44,4.43
		c-4.38,0-7.78-1.64-10.2-4.92s-3.62-7.79-3.62-13.54c0-5.77,1.28-10.3,3.85-13.59c2.57-3.29,6.15-4.94,10.75-4.94
		c4.53,0,7.87,1.88,10.03,5.62c1.14-1.55,2.01-3.18,2.62-4.89H726.29z M715.6,143.98c0-2.3-0.53-4.1-1.58-5.41
		c-1.05-1.31-2.31-1.97-3.76-1.97c-1.59,0-2.97,0.67-4.13,2s-1.74,4.52-1.74,9.56c0,4.34,0.5,7.25,1.49,8.75s2.33,2.25,3.99,2.25
		c1.52,0,2.86-0.75,4.01-2.25s1.72-3.43,1.72-5.8V143.98z"/>
	<path d="M764.79,130.24v35.51h-9.7v-6.05c-1.83,4.52-5.32,6.79-10.48,6.79c-2.67,0-4.72-0.5-6.15-1.49s-2.46-2.36-3.08-4.08
		s-0.93-4.21-0.93-7.47v-23.2h10.16v23.2c0,3.19,1.31,4.78,3.94,4.78c1.34,0,2.5-0.38,3.48-1.14s1.61-1.58,1.88-2.44
		s0.4-2.36,0.4-4.46v-19.93H764.79z"/>
	<path d="M804.41,165.74h-10.16c-0.33-1.41-0.49-3.26-0.49-5.55c-1.78,2.53-3.55,4.21-5.32,5.04s-3.77,1.25-6.02,1.25
		c-3.32,0-6.01-0.9-8.06-2.71c-2.05-1.8-3.07-4.23-3.07-7.28c0-2.23,0.6-4.28,1.79-6.15s3.11-3.35,5.76-4.41s7.46-1.86,14.46-2.37
		v-2.04c0-3.45-1.72-5.17-5.15-5.17c-3.67,0-5.71,1.72-6.13,5.17l-9.67-0.91c0.63-4.03,2.54-6.89,5.73-8.58s6.8-2.53,10.83-2.53
		c2.41,0,4.69,0.28,6.82,0.84s3.8,1.41,4.99,2.53s2,2.31,2.43,3.57c0.42,1.25,0.63,3.44,0.63,6.56v16.1
		C803.78,162.19,803.99,164.41,804.41,165.74z M793.3,148.73c-7.31,0.73-10.97,2.94-10.97,6.64c0,1.24,0.38,2.31,1.16,3.22
		s1.87,1.35,3.29,1.35c1.85,0,3.39-0.77,4.64-2.3s1.88-3.43,1.88-5.68V148.73z"/>
	<path d="M842.62,117.76v47.99h-9.67v-5.55c-2.39,4.2-5.66,6.29-9.79,6.29c-3.92,0-7.01-1.6-9.28-4.8s-3.4-7.63-3.4-13.31
		c0-5.91,1.13-10.53,3.4-13.87c2.26-3.34,5.55-5.01,9.84-5.01c3.78,0,6.69,1.49,8.73,4.46v-16.21H842.62z M832.46,145.11
		c0-5.58-1.69-8.37-5.08-8.37c-4.04,0-6.07,3.94-6.07,11.81c0,7.01,1.89,10.51,5.68,10.51c1.46,0,2.73-0.63,3.83-1.9
		c1.09-1.27,1.64-3.07,1.64-5.41V145.11z"/>
</g>
<g>
</g>
<g>
</g>
<g>
</g>
<g>
</g>
<g>
</g>
<g>
</g>
</svg>
