<?xml version="1.0" encoding="utf-8"?>
<!-- Generator: Adobe Illustrator 25.3.1, SVG Export Plug-In . SVG Version: 6.00 Build 0)  -->
<svg version="1.1" id="Layer_1" xmlns="http://www.w3.org/2000/svg" xmlns:xlink="http://www.w3.org/1999/xlink" x="0px" y="0px"
	 viewBox="0 0 1133.86 283.46" style="enable-background:new 0 0 1133.86 283.46;" xml:space="preserve">
<style type="text/css">
	.st0{fill:none;}
	.st1{fill:#010101;}
</style>
<g>
	<rect x="7.19" y="4.72" class="st0" width="1119.48" height="274.03"/>
	<path class="st1" d="M423.63,74.56v9.49h-11.88v38.5h-11.39v-38.5h-11.95v-9.49H423.63z"/>
	<path class="st1" d="M438.43,73.57v10.48h-10.48V73.57H438.43z M438.43,87.04v35.51h-10.48V87.04H438.43z"/>
	<path class="st1" d="M497.78,122.54H487.3v-19.65c0-2.77-0.08-4.56-0.25-5.4c-0.16-0.83-0.59-1.52-1.28-2.07
		c-0.69-0.55-1.65-0.83-2.87-0.83c-1.15,0-2.32,0.41-3.52,1.23c-1.2,0.82-1.79,3.18-1.79,7.07v19.65h-10.48v-19.65
		c0-2.84-0.13-4.67-0.39-5.5c-0.26-0.83-0.74-1.51-1.46-2.02c-0.72-0.52-1.62-0.77-2.72-0.77c-1.81,0-3.15,0.57-4.03,1.71
		c-0.88,1.14-1.32,3.33-1.32,6.59v19.65h-10.16V87.04h9.84v5.41c1.67-4.1,5-6.15,10-6.15c4.53,0,7.81,2.05,9.82,6.15
		c1.97-4.1,5.4-6.15,10.3-6.15c2.34,0,4.36,0.48,6.05,1.44c1.69,0.96,2.89,2.21,3.62,3.76c0.73,1.55,1.09,4.21,1.09,7.98V122.54z"/>
	<path class="st1" d="M538.28,106.55h-22.85c-0.02,0.63-0.04,1.18-0.04,1.65c0,2.53,0.67,4.44,2.02,5.73
		c1.35,1.29,2.96,1.93,4.83,1.93c3.49,0,5.59-1.86,6.29-5.59l9.49,0.7c-2.65,8.2-8.03,12.3-16.14,12.3c-3.54,0-6.54-0.71-9.02-2.13
		c-2.47-1.42-4.51-3.49-6.12-6.21c-1.61-2.72-2.41-5.98-2.41-9.77c0-5.65,1.61-10.21,4.83-13.68c3.22-3.47,7.37-5.2,12.43-5.2
		c4.57,0,8.49,1.61,11.76,4.83C536.64,94.35,538.28,99.49,538.28,106.55z M515.39,100.47h12.62c-0.33-4.87-2.33-7.31-6.01-7.31
		C518.06,93.15,515.86,95.59,515.39,100.47z"/>
	<path class="st1" d="M574.7,95.19v15.01c0,1.88,0.28,3.13,0.84,3.76s1.88,0.95,3.96,0.95c0.96,0,2.07-0.05,3.33-0.14v7.77
		c-3.05,0.52-5.24,0.77-6.57,0.77c-4.36,0-7.45-0.84-9.28-2.51c-1.83-1.68-2.74-4.71-2.74-9.09V95.19h-5.62v-8.16h6.22l0.84-10.48
		l9.03-0.7v11.18h7.63v8.16H574.7z"/>
	<path class="st1" d="M602.63,86.3c5.41,0,9.63,1.77,12.66,5.31c3.03,3.54,4.55,7.97,4.55,13.29c0,5.25-1.58,9.63-4.72,13.13
		c-3.15,3.5-7.33,5.26-12.55,5.26c-5.06,0-9.1-1.73-12.13-5.2c-3.03-3.47-4.55-7.92-4.55-13.36c0-3.77,0.68-6.98,2.05-9.62
		c1.37-2.64,3.25-4.76,5.64-6.38C595.96,87.11,598.98,86.3,602.63,86.3z M602.91,93.15c-1.99,0-3.48,0.77-4.49,2.3
		c-1.01,1.54-1.51,4.59-1.51,9.16c0,4.2,0.48,7.21,1.44,9.04c0.96,1.83,2.45,2.74,4.49,2.74c1.78,0,3.21-0.78,4.31-2.34
		c1.1-1.56,1.65-4.53,1.65-8.91c0-4.66-0.49-7.83-1.46-9.49C606.38,93.99,604.9,93.15,602.91,93.15z"/>
	<path class="st1" d="M679.22,83.7h-22.85v9.84h17.96v9.04h-17.96v10.48h22.85v9.49h-34.28V74.56h34.28V83.7z"/>
	<path class="st1" d="M716.45,122.54h-10.16c-0.33-1.41-0.49-3.26-0.49-5.55c-1.78,2.53-3.55,4.21-5.32,5.04s-3.77,1.25-6.02,1.25
		c-3.32,0-6.01-0.9-8.06-2.71c-2.05-1.8-3.07-4.23-3.07-7.28c0-2.23,0.6-4.28,1.79-6.15c1.19-1.88,3.11-3.35,5.76-4.41
		c2.64-1.07,7.46-1.86,14.46-2.37v-2.04c0-3.45-1.72-5.17-5.15-5.17c-3.67,0-5.71,1.72-6.13,5.17l-9.67-0.91
		c0.63-4.03,2.54-6.89,5.73-8.58s6.8-2.53,10.83-2.53c2.41,0,4.69,0.28,6.82,0.84s3.8,1.41,4.99,2.53s2,2.31,2.43,3.57
		c0.42,1.25,0.63,3.44,0.63,6.56v16.1C715.82,118.99,716.03,121.21,716.45,122.54z M705.34,105.53c-7.31,0.73-10.97,2.94-10.97,6.64
		c0,1.24,0.38,2.31,1.16,3.22c0.77,0.9,1.87,1.35,3.29,1.35c1.85,0,3.39-0.77,4.64-2.3c1.25-1.53,1.88-3.43,1.88-5.68V105.53z"/>
	<path class="st1" d="M736.28,95.19v15.01c0,1.88,0.28,3.13,0.84,3.76s1.88,0.95,3.96,0.95c0.96,0,2.07-0.05,3.33-0.14v7.77
		c-3.05,0.52-5.24,0.77-6.57,0.77c-4.36,0-7.45-0.84-9.28-2.51c-1.83-1.68-2.74-4.71-2.74-9.09V95.19h-5.62v-8.16h6.22l0.84-10.48
		l9.04-0.7v11.18h7.63v8.16H736.28z"/>
	<path class="st1" d="M135.12,220.93c-6.66-9.54-9.98-19.49-9.98-29.85c0-10.9,3.4-20.94,10.2-30.13h7.63
		c-5.48,9.09-8.23,19.07-8.23,29.92c0,11.11,2.68,21.13,8.05,30.06H135.12z"/>
	<path class="st1" d="M149.5,160.96h22.36c4.01,0,7.02,0.49,9.04,1.48c2.02,0.98,3.68,2.39,4.99,4.22c1.31,1.83,1.97,4.05,1.97,6.67
		c0,5.32-2.88,8.87-8.65,10.64c3.33,0.75,5.82,2.24,7.49,4.47c1.66,2.23,2.5,4.66,2.5,7.28c0,3.59-1.36,6.69-4.08,9.31
		c-2.72,2.62-7.14,3.92-13.25,3.92H149.5V160.96z M160.72,169.43v10.51h8.51c3.12,0,5.08-0.62,5.89-1.85s1.21-2.41,1.21-3.53
		c0-1.22-0.33-2.27-1-3.15s-1.4-1.43-2.2-1.65c-0.8-0.22-2.37-0.33-4.71-0.33H160.72z M160.72,188.48v11.57h8.63
		c2.95,0,5.03-0.52,6.24-1.55s1.82-2.47,1.82-4.32c0-1.55-0.58-2.88-1.75-4.01s-3.11-1.69-5.82-1.69H160.72z"/>
	<path class="st1" d="M195.91,208.94v-47.99h10.48v47.99H195.91z"/>
	<path class="st1" d="M245.97,208.94h-10.16c-0.33-1.41-0.49-3.26-0.49-5.55c-1.78,2.53-3.55,4.21-5.32,5.04s-3.77,1.25-6.02,1.25
		c-3.32,0-6.01-0.9-8.06-2.71c-2.05-1.8-3.07-4.23-3.07-7.28c0-2.23,0.6-4.28,1.79-6.15s3.11-3.35,5.76-4.41
		c2.64-1.07,7.46-1.86,14.46-2.37v-2.04c0-3.45-1.72-5.17-5.15-5.17c-3.67,0-5.71,1.72-6.13,5.17l-9.67-0.91
		c0.63-4.03,2.54-6.89,5.73-8.58c3.19-1.69,6.8-2.53,10.83-2.53c2.41,0,4.69,0.28,6.82,0.84c2.13,0.56,3.8,1.41,4.99,2.53
		s2,2.31,2.43,3.57s0.63,3.44,0.63,6.56v16.1C245.34,205.39,245.55,207.61,245.97,208.94z M234.86,191.93
		c-7.31,0.73-10.97,2.94-10.97,6.64c0,1.24,0.39,2.31,1.16,3.22c0.77,0.9,1.87,1.35,3.29,1.35c1.85,0,3.39-0.77,4.64-2.3
		s1.88-3.43,1.88-5.68V191.93z"/>
	<path class="st1" d="M285.2,195.62c-0.4,4.2-2.06,7.59-4.97,10.18s-6.69,3.88-11.3,3.88c-5.02,0-9.1-1.66-12.25-4.97
		c-3.15-3.32-4.73-7.75-4.73-13.31s1.61-10.06,4.83-13.52c3.22-3.46,7.53-5.19,12.92-5.19c4.34,0,7.93,1.3,10.78,3.9
		s4.42,5.86,4.73,9.77l-9.77,0.56c-0.33-4.27-2.18-6.4-5.55-6.4c-4.15,0-6.22,3.4-6.22,10.2c0,4.52,0.58,7.39,1.74,8.61
		s2.57,1.83,4.24,1.83c3.23,0,5.17-2.05,5.8-6.15L285.2,195.62z"/>
	<path class="st1" d="M314.78,185.48l11.56,23.46h-11.56l-7.41-16.08l-6.16,7.08v9h-9.88v-47.99h9.88v28.76l1.55-1.93
		c0.66-0.89,1.21-1.61,1.65-2.14l10.36-12.2h10.21L314.78,185.48z"/>
	<path class="st1" d="M383.04,170.45h-22.46v10.76h17.75v8.96h-17.75v18.77h-11.67v-47.99h34.14V170.45z"/>
	<path class="st1" d="M401.52,172.7c5.41,0,9.63,1.77,12.66,5.31s4.55,7.97,4.55,13.29c0,5.25-1.57,9.63-4.72,13.13
		c-3.15,3.5-7.33,5.26-12.56,5.26c-5.06,0-9.1-1.73-12.13-5.2s-4.55-7.92-4.55-13.36c0-3.77,0.68-6.98,2.05-9.62
		c1.37-2.64,3.25-4.76,5.64-6.38C394.85,173.51,397.87,172.7,401.52,172.7z M401.8,179.55c-1.99,0-3.48,0.77-4.49,2.3
		c-1.01,1.54-1.51,4.59-1.51,9.16c0,4.2,0.48,7.21,1.44,9.04s2.45,2.74,4.49,2.74c1.78,0,3.21-0.78,4.31-2.34
		c1.1-1.56,1.65-4.53,1.65-8.91c0-4.66-0.48-7.83-1.45-9.49C405.26,180.39,403.79,179.55,401.8,179.55z"/>
	<path class="st1" d="M435.5,208.94h-10.16v-35.51h9.6v6.61c1.48-4.92,4.03-7.38,7.66-7.38c0.52,0,1.15,0.04,1.9,0.11v10.34
		c-2.13,0-3.79,0.33-4.97,0.98c-1.18,0.66-2.15,1.83-2.9,3.53c-0.75,1.7-1.12,3.99-1.12,6.87V208.94z"/>
	<path class="st1" d="M482.22,192.95h-22.85c-0.02,0.63-0.04,1.18-0.04,1.65c0,2.53,0.67,4.44,2.02,5.73
		c1.35,1.29,2.96,1.93,4.83,1.93c3.49,0,5.59-1.86,6.29-5.59l9.49,0.7c-2.65,8.2-8.03,12.3-16.14,12.3c-3.54,0-6.54-0.71-9.02-2.13
		c-2.47-1.42-4.51-3.49-6.12-6.21c-1.61-2.72-2.41-5.98-2.41-9.77c0-5.65,1.61-10.21,4.83-13.68c3.22-3.47,7.37-5.2,12.43-5.2
		c4.57,0,8.49,1.61,11.76,4.83S482.22,185.89,482.22,192.95z M459.33,186.87h12.62c-0.33-4.88-2.33-7.31-6.01-7.31
		C462.01,179.55,459.8,181.99,459.33,186.87z"/>
	<path class="st1" d="M515.41,182.01l-7.63,2.04c-0.89-3.21-3.2-4.82-6.93-4.82c-3.52,0-5.27,1.07-5.27,3.21
		c0,0.85,0.32,1.52,0.97,2.03c0.64,0.5,2.33,0.93,5.04,1.28c4.06,0.54,7.05,1.15,9,1.86c1.95,0.7,3.49,1.89,4.62,3.55
		c1.14,1.66,1.71,3.71,1.71,6.15c0,3.66-1.39,6.63-4.17,8.93s-6.66,3.45-11.65,3.45c-9.05,0-14.45-3.5-16.21-10.51l8.82-1.3
		c0.73,3.19,3.35,4.78,7.88,4.78c1.73,0,3.2-0.31,4.39-0.93s1.79-1.46,1.79-2.52c0-1.65-1.32-2.62-3.97-2.92
		c-7.17-0.88-11.89-2.26-14.15-4.12c-2.26-1.86-3.39-4.46-3.39-7.79c0-3.38,1.31-6.16,3.94-8.37c2.62-2.2,6.3-3.3,11.04-3.3
		c3.75,0,6.75,0.74,9,2.21S514.21,178.76,515.41,182.01z"/>
	<path class="st1" d="M535.27,181.59v15.01c0,1.88,0.28,3.13,0.84,3.76c0.56,0.63,1.88,0.95,3.96,0.95c0.96,0,2.07-0.05,3.33-0.14
		v7.77c-3.05,0.52-5.24,0.77-6.57,0.77c-4.36,0-7.45-0.84-9.28-2.51s-2.74-4.71-2.74-9.09v-16.52h-5.62v-8.16h6.22l0.84-10.48
		l9.04-0.7v11.18h7.63v8.16H535.27z"/>
	<path class="st1" d="M600.42,171.5l-9.56,3.2c-1.29-3.8-4.01-5.7-8.17-5.7c-4.44,0-6.66,1.44-6.66,4.32c0,1.15,0.42,2.12,1.25,2.92
		s2.71,1.49,5.63,2.08c4.89,0.99,8.47,1.99,10.74,2.99c2.27,1.01,4.18,2.63,5.74,4.87s2.33,4.74,2.33,7.5
		c0,4.34-1.67,8.08-5.01,11.25c-3.34,3.16-8.28,4.75-14.84,4.75c-4.92,0-9.1-1.12-12.56-3.36c-3.45-2.24-5.73-5.56-6.83-9.97
		l10.41-2.36c1.17,4.48,4.42,6.71,9.75,6.71c2.57,0,4.49-0.5,5.75-1.49c1.26-1,1.89-2.19,1.89-3.57c0-1.41-0.57-2.5-1.72-3.27
		c-1.15-0.77-3.36-1.5-6.63-2.18c-6.11-1.27-10.46-3-13.06-5.19c-2.6-2.19-3.9-5.4-3.9-9.61c0-4.26,1.55-7.86,4.65-10.79
		c3.1-2.93,7.31-4.39,12.63-4.39C591.67,160.22,597.72,163.98,600.42,171.5z"/>
	<path class="st1" d="M619.89,181.59v15.01c0,1.88,0.28,3.13,0.84,3.76s1.88,0.95,3.96,0.95c0.96,0,2.07-0.05,3.33-0.14v7.77
		c-3.05,0.52-5.24,0.77-6.57,0.77c-4.36,0-7.45-0.84-9.28-2.51s-2.74-4.71-2.74-9.09v-16.52h-5.62v-8.16h6.22l0.84-10.48l9.04-0.7
		v11.18h7.63v8.16H619.89z"/>
	<path class="st1" d="M664.93,192.95h-22.85c-0.02,0.63-0.04,1.18-0.04,1.65c0,2.53,0.67,4.44,2.02,5.73s2.96,1.93,4.83,1.93
		c3.49,0,5.59-1.86,6.29-5.59l9.49,0.7c-2.65,8.2-8.03,12.3-16.14,12.3c-3.54,0-6.54-0.71-9.02-2.13s-4.51-3.49-6.12-6.21
		s-2.41-5.98-2.41-9.77c0-5.65,1.61-10.21,4.83-13.68s7.37-5.2,12.43-5.2c4.57,0,8.49,1.61,11.76,4.83S664.93,185.89,664.93,192.95z
		 M642.04,186.87h12.62c-0.33-4.88-2.33-7.31-6.01-7.31C644.71,179.55,642.51,181.99,642.04,186.87z"/>
	<path class="st1" d="M702.51,208.94h-10.16c-0.33-1.41-0.49-3.26-0.49-5.55c-1.78,2.53-3.55,4.21-5.32,5.04s-3.77,1.25-6.02,1.25
		c-3.32,0-6.01-0.9-8.06-2.71c-2.05-1.8-3.07-4.23-3.07-7.28c0-2.23,0.6-4.28,1.79-6.15s3.11-3.35,5.76-4.41s7.46-1.86,14.46-2.37
		v-2.04c0-3.45-1.72-5.17-5.15-5.17c-3.67,0-5.71,1.72-6.13,5.17l-9.67-0.91c0.63-4.03,2.54-6.89,5.73-8.58s6.8-2.53,10.83-2.53
		c2.41,0,4.69,0.28,6.82,0.84s3.8,1.41,4.99,2.53s2,2.31,2.43,3.57s0.63,3.44,0.63,6.56v16.1
		C701.88,205.39,702.09,207.61,702.51,208.94z M691.4,191.93c-7.31,0.73-10.97,2.94-10.97,6.64c0,1.24,0.38,2.31,1.16,3.22
		s1.87,1.35,3.29,1.35c1.85,0,3.39-0.77,4.64-2.3s1.88-3.43,1.88-5.68V191.93z"/>
	<path class="st1" d="M733.98,185.48l11.56,23.46h-11.56l-7.41-16.08l-6.16,7.08v9h-9.88v-47.99h9.88v28.76l1.54-1.93
		c0.66-0.89,1.21-1.61,1.65-2.14l10.36-12.2h10.21L733.98,185.48z"/>
	<path class="st1" d="M779.43,189.92v19.02h-11.32v-47.99h21.09c3.89,0,7.01,0.45,9.37,1.35c2.36,0.9,4.31,2.56,5.85,4.97
		c1.55,2.41,2.32,5.09,2.32,8.04c0,5.76-2.78,9.9-8.33,12.4l8.86,21.22h-12.42l-7.37-19.02H779.43z M779.43,169.5v12.23h6.89
		c2.25,0,3.88-0.16,4.9-0.47s1.93-1.02,2.72-2.11s1.2-2.34,1.2-3.74c0-1.34-0.4-2.53-1.2-3.59s-1.66-1.71-2.6-1.95
		s-2.7-0.37-5.27-0.37H779.43z"/>
	<path class="st1" d="M845.59,192.95h-22.85c-0.02,0.63-0.04,1.18-0.04,1.65c0,2.53,0.67,4.44,2.02,5.73s2.96,1.93,4.83,1.93
		c3.49,0,5.59-1.86,6.29-5.59l9.49,0.7c-2.65,8.2-8.03,12.3-16.14,12.3c-3.54,0-6.54-0.71-9.02-2.13s-4.51-3.49-6.12-6.21
		s-2.41-5.98-2.41-9.77c0-5.65,1.61-10.21,4.83-13.68s7.37-5.2,12.43-5.2c4.57,0,8.49,1.61,11.76,4.83S845.59,185.89,845.59,192.95z
		 M822.71,186.87h12.62c-0.33-4.88-2.33-7.31-6.01-7.31C825.38,179.55,823.18,181.99,822.71,186.87z"/>
	<path class="st1" d="M882.4,160.96v47.99h-9.67v-5.55c-2.39,4.2-5.66,6.29-9.79,6.29c-3.92,0-7.01-1.6-9.28-4.8
		s-3.4-7.63-3.4-13.31c0-5.91,1.13-10.53,3.4-13.87c2.26-3.34,5.55-5.01,9.84-5.01c3.78,0,6.69,1.49,8.73,4.46v-16.21H882.4z
		 M872.24,188.31c0-5.58-1.69-8.37-5.08-8.37c-4.04,0-6.07,3.94-6.07,11.81c0,7.01,1.89,10.51,5.68,10.51c1.46,0,2.73-0.63,3.83-1.9
		c1.09-1.27,1.64-3.07,1.64-5.41V188.31z"/>
	<path class="st1" d="M942.45,187.15l-1.23,7h-6.78l-2.6,14.8h-7.1l2.61-14.8h-5.52l-2.61,14.8h-6.96l2.6-14.8h-7.67l1.23-7h7.67
		l0.95-5.41h-7.53l1.2-6.96h7.56l2.43-13.82h7l-2.44,13.82h5.52l2.44-13.82h7.07l-2.43,13.82h6.68l-1.23,6.96h-6.67l-0.95,5.41
		H942.45z M929.54,181.73h-5.52l-0.96,5.41h5.52L929.54,181.73z"/>
	<path class="st1" d="M960.45,196.22c0.99,3.38,3.11,5.06,6.38,5.06c2.21,0,4.11-0.9,5.69-2.71c1.58-1.8,2.42-6.01,2.52-12.62
		c-2.74,3.3-6.32,4.96-10.72,4.96c-4.27,0-7.8-1.36-10.6-4.08s-4.2-6.26-4.2-10.62c0-4.76,1.59-8.61,4.76-11.57
		s7.46-4.43,12.85-4.43c3.87,0,7.24,0.88,10.11,2.64s5.07,4.56,6.61,8.42s2.3,8.19,2.3,12.99c0,7.2-1.65,13.23-4.96,18.11
		s-8.25,7.31-14.84,7.31c-8.46,0-13.71-3.89-15.75-11.67L960.45,196.22z M967.34,168.2c-2.09,0-3.8,0.74-5.15,2.23
		s-2.02,3.18-2.02,5.08c0,1.92,0.64,3.61,1.92,5.06s2.98,2.18,5.12,2.18s3.88-0.75,5.24-2.25s2.04-3.19,2.04-5.06
		c0-1.9-0.67-3.58-2.02-5.04S969.4,168.2,967.34,168.2z"/>
	<path class="st1" d="M998.67,160.96c6.7,9.59,10.05,19.54,10.05,29.85c0,10.95-3.41,20.99-10.23,30.13h-7.63
		c5.48-9.02,8.23-19,8.23-29.92c0-11.11-2.68-21.13-8.05-30.06H998.67z"/>
</g>
<g>
</g>
<g>
</g>
<g>
</g>
<g>
</g>
<g>
</g>
<g>
</g>
</svg>
